<mxfile host="app.diagrams.net" modified="2022-08-11T13:49:57.097Z" agent="5.0 (Windows NT 10.0; Win64; x64) AppleWebKit/537.36 (KHTML, like Gecko) Chrome/104.0.5112.81 Safari/537.36 Edg/104.0.1293.47" etag="jZzCYWXLBVpJmQm7lQJT" version="20.2.3" type="github">
  <diagram id="WxDGddaala04och6Pkpp" name="第 1 页">
    <mxGraphModel dx="1422" dy="754" grid="1" gridSize="10" guides="1" tooltips="1" connect="1" arrows="1" fold="1" page="1" pageScale="1" pageWidth="827" pageHeight="1169" math="0" shadow="0">
      <root>
        <mxCell id="0" />
        <mxCell id="1" parent="0" />
        <mxCell id="e7L8QYiHZpF9JPW8qhZe-6" style="edgeStyle=orthogonalEdgeStyle;rounded=0;orthogonalLoop=1;jettySize=auto;html=1;exitX=0.5;exitY=1;exitDx=0;exitDy=0;entryX=0.5;entryY=0;entryDx=0;entryDy=0;" edge="1" parent="1" source="e7L8QYiHZpF9JPW8qhZe-1" target="e7L8QYiHZpF9JPW8qhZe-4">
          <mxGeometry relative="1" as="geometry" />
        </mxCell>
        <mxCell id="e7L8QYiHZpF9JPW8qhZe-1" value="電気自動車" style="rounded=1;whiteSpace=wrap;html=1;fillColor=#ffe6cc;strokeColor=#d79b00;" vertex="1" parent="1">
          <mxGeometry x="70" y="40" width="120" height="60" as="geometry" />
        </mxCell>
        <mxCell id="e7L8QYiHZpF9JPW8qhZe-7" style="edgeStyle=orthogonalEdgeStyle;rounded=0;orthogonalLoop=1;jettySize=auto;html=1;exitX=0.5;exitY=1;exitDx=0;exitDy=0;" edge="1" parent="1" source="e7L8QYiHZpF9JPW8qhZe-2">
          <mxGeometry relative="1" as="geometry">
            <mxPoint x="220" y="140" as="targetPoint" />
          </mxGeometry>
        </mxCell>
        <mxCell id="e7L8QYiHZpF9JPW8qhZe-2" value="電池" style="rounded=1;whiteSpace=wrap;html=1;fillColor=#ffe6cc;strokeColor=#d79b00;" vertex="1" parent="1">
          <mxGeometry x="250" y="40" width="120" height="60" as="geometry" />
        </mxCell>
        <mxCell id="e7L8QYiHZpF9JPW8qhZe-16" value="" style="edgeStyle=orthogonalEdgeStyle;rounded=0;orthogonalLoop=1;jettySize=auto;html=1;" edge="1" parent="1" source="e7L8QYiHZpF9JPW8qhZe-3" target="e7L8QYiHZpF9JPW8qhZe-15">
          <mxGeometry relative="1" as="geometry" />
        </mxCell>
        <mxCell id="e7L8QYiHZpF9JPW8qhZe-21" style="edgeStyle=orthogonalEdgeStyle;rounded=0;orthogonalLoop=1;jettySize=auto;html=1;" edge="1" parent="1" source="e7L8QYiHZpF9JPW8qhZe-3" target="e7L8QYiHZpF9JPW8qhZe-22">
          <mxGeometry relative="1" as="geometry">
            <mxPoint x="220" y="510" as="targetPoint" />
          </mxGeometry>
        </mxCell>
        <mxCell id="e7L8QYiHZpF9JPW8qhZe-3" value="有価証券報告書&lt;br&gt;データ" style="rounded=1;whiteSpace=wrap;html=1;fillColor=#ffe6cc;strokeColor=#d79b00;" vertex="1" parent="1">
          <mxGeometry x="160" y="340" width="120" height="60" as="geometry" />
        </mxCell>
        <mxCell id="e7L8QYiHZpF9JPW8qhZe-8" style="edgeStyle=orthogonalEdgeStyle;rounded=0;orthogonalLoop=1;jettySize=auto;html=1;exitX=1;exitY=0.5;exitDx=0;exitDy=0;" edge="1" parent="1" source="e7L8QYiHZpF9JPW8qhZe-4" target="e7L8QYiHZpF9JPW8qhZe-9">
          <mxGeometry relative="1" as="geometry">
            <mxPoint x="350" y="170" as="targetPoint" />
          </mxGeometry>
        </mxCell>
        <mxCell id="e7L8QYiHZpF9JPW8qhZe-12" style="edgeStyle=orthogonalEdgeStyle;rounded=0;orthogonalLoop=1;jettySize=auto;html=1;exitX=0.5;exitY=1;exitDx=0;exitDy=0;entryX=0.5;entryY=0;entryDx=0;entryDy=0;" edge="1" parent="1" source="e7L8QYiHZpF9JPW8qhZe-4" target="e7L8QYiHZpF9JPW8qhZe-10">
          <mxGeometry relative="1" as="geometry" />
        </mxCell>
        <mxCell id="e7L8QYiHZpF9JPW8qhZe-4" value="Word2vec" style="rounded=1;whiteSpace=wrap;html=1;fillColor=#ffe6cc;strokeColor=#d79b00;" vertex="1" parent="1">
          <mxGeometry x="160" y="140" width="120" height="60" as="geometry" />
        </mxCell>
        <mxCell id="e7L8QYiHZpF9JPW8qhZe-18" style="edgeStyle=orthogonalEdgeStyle;rounded=0;orthogonalLoop=1;jettySize=auto;html=1;entryX=1;entryY=0.5;entryDx=0;entryDy=0;" edge="1" parent="1" source="e7L8QYiHZpF9JPW8qhZe-9" target="e7L8QYiHZpF9JPW8qhZe-17">
          <mxGeometry relative="1" as="geometry" />
        </mxCell>
        <mxCell id="e7L8QYiHZpF9JPW8qhZe-9" value="SimilarityA" style="rounded=1;whiteSpace=wrap;html=1;fillColor=#dae8fc;strokeColor=#6c8ebf;" vertex="1" parent="1">
          <mxGeometry x="330" y="140" width="120" height="60" as="geometry" />
        </mxCell>
        <mxCell id="e7L8QYiHZpF9JPW8qhZe-13" value="" style="edgeStyle=orthogonalEdgeStyle;rounded=0;orthogonalLoop=1;jettySize=auto;html=1;" edge="1" parent="1" source="e7L8QYiHZpF9JPW8qhZe-10" target="e7L8QYiHZpF9JPW8qhZe-3">
          <mxGeometry relative="1" as="geometry" />
        </mxCell>
        <mxCell id="e7L8QYiHZpF9JPW8qhZe-10" value="類似語" style="rounded=1;whiteSpace=wrap;html=1;fillColor=#ffe6cc;strokeColor=#d79b00;" vertex="1" parent="1">
          <mxGeometry x="160" y="230" width="120" height="60" as="geometry" />
        </mxCell>
        <mxCell id="e7L8QYiHZpF9JPW8qhZe-19" style="edgeStyle=orthogonalEdgeStyle;rounded=0;orthogonalLoop=1;jettySize=auto;html=1;entryX=1;entryY=0.5;entryDx=0;entryDy=0;" edge="1" parent="1" source="e7L8QYiHZpF9JPW8qhZe-15" target="e7L8QYiHZpF9JPW8qhZe-17">
          <mxGeometry relative="1" as="geometry" />
        </mxCell>
        <mxCell id="e7L8QYiHZpF9JPW8qhZe-15" value="SimilarityB" style="rounded=1;whiteSpace=wrap;html=1;fillColor=#dae8fc;strokeColor=#6c8ebf;" vertex="1" parent="1">
          <mxGeometry x="330" y="340" width="120" height="60" as="geometry" />
        </mxCell>
        <mxCell id="e7L8QYiHZpF9JPW8qhZe-20" style="edgeStyle=orthogonalEdgeStyle;rounded=0;orthogonalLoop=1;jettySize=auto;html=1;entryX=1;entryY=0.5;entryDx=0;entryDy=0;" edge="1" parent="1" source="e7L8QYiHZpF9JPW8qhZe-17" target="e7L8QYiHZpF9JPW8qhZe-3">
          <mxGeometry relative="1" as="geometry" />
        </mxCell>
        <mxCell id="e7L8QYiHZpF9JPW8qhZe-17" value="Final-similarity" style="rounded=1;whiteSpace=wrap;html=1;fillColor=#dae8fc;strokeColor=#6c8ebf;" vertex="1" parent="1">
          <mxGeometry x="330" y="470" width="120" height="60" as="geometry" />
        </mxCell>
        <mxCell id="e7L8QYiHZpF9JPW8qhZe-23" style="edgeStyle=orthogonalEdgeStyle;rounded=0;orthogonalLoop=1;jettySize=auto;html=1;" edge="1" parent="1" source="e7L8QYiHZpF9JPW8qhZe-22" target="e7L8QYiHZpF9JPW8qhZe-24">
          <mxGeometry relative="1" as="geometry">
            <mxPoint x="220" y="610" as="targetPoint" />
          </mxGeometry>
        </mxCell>
        <mxCell id="e7L8QYiHZpF9JPW8qhZe-22" value="Company-score" style="rounded=1;whiteSpace=wrap;html=1;fillColor=#dae8fc;strokeColor=#6c8ebf;" vertex="1" parent="1">
          <mxGeometry x="160" y="480" width="120" height="60" as="geometry" />
        </mxCell>
        <mxCell id="e7L8QYiHZpF9JPW8qhZe-24" value="関連度と銘柄コード出力" style="rounded=1;whiteSpace=wrap;html=1;fillColor=#d5e8d4;strokeColor=#82b366;" vertex="1" parent="1">
          <mxGeometry x="160" y="585" width="120" height="60" as="geometry" />
        </mxCell>
        <mxCell id="e7L8QYiHZpF9JPW8qhZe-25" value="調和平均" style="text;html=1;strokeColor=none;fillColor=none;align=center;verticalAlign=middle;whiteSpace=wrap;rounded=0;" vertex="1" parent="1">
          <mxGeometry x="480" y="450" width="60" height="30" as="geometry" />
        </mxCell>
      </root>
    </mxGraphModel>
  </diagram>
</mxfile>
